<?xml version="1.0" encoding="iso-8859-1"?>
<!-- Uploaded to: SVG Repo, www.svgrepo.com, Generator: SVG Repo Mixer Tools -->
<svg height="800px" width="800px" version="1.1" id="Layer_1" xmlns="http://www.w3.org/2000/svg" xmlns:xlink="http://www.w3.org/1999/xlink" 
	 viewBox="0 0 512 512" xml:space="preserve">
<path style="fill:#3E3D41;" d="M337.141,512c-4.266,0-8.532-1.627-11.785-4.883l-69.93-69.929l-69.93,69.929
	c-6.508,6.509-17.062,6.509-23.572,0c-6.509-6.509-6.509-17.062,0-23.572l93.502-93.502l93.502,93.502
	c6.509,6.509,6.509,17.062,0,23.572C345.672,510.372,341.407,512,337.141,512z"/>
<g>
	<path style="fill:#57565C;" d="M255.998,122.23c-9.155,0-16.606-7.392-16.666-16.56l-0.574-88.895
		C238.699,7.57,246.113,0.06,255.318,0c0.037,0,0.073,0,0.11,0c9.155,0,16.606,7.392,16.666,16.56l0.574,88.895
		c0.06,9.205-7.355,16.716-16.559,16.776C256.071,122.23,256.034,122.23,255.998,122.23z"/>
	<path style="fill:#57565C;" d="M255.426,493.365c-0.011,0-0.021,0-0.032,0c-9.205-0.018-16.653-7.494-16.637-16.699l0.574-306.687
		c0.018-9.195,7.477-16.637,16.668-16.637c0.01,0,0.021,0,0.031,0c9.206,0.018,16.654,7.494,16.637,16.699l-0.574,306.687
		C272.076,485.924,264.616,493.365,255.426,493.365z"/>
</g>
<g>
	<path style="fill:#FAD52D;" d="M256,48.685c-92.054,0-166.678,20.83-166.678,46.526h333.355
		C422.678,69.517,348.054,48.685,256,48.685z"/>
	<path style="fill:#FAD52D;" d="M256,226.888c-92.054,0-166.678-20.83-166.678-46.526h333.355
		C422.678,206.057,348.054,226.888,256,226.888z"/>
</g>
<g>
	<path style="fill:#C7A510;" d="M437.123,122.23H74.877c-9.205,0-16.668-7.463-16.668-16.668s7.463-16.668,16.668-16.668h362.246
		c9.205,0,16.668,7.463,16.668,16.668S446.328,122.23,437.123,122.23z"/>
	<path style="fill:#C7A510;" d="M437.123,186.679H74.877c-9.205,0-16.668-7.463-16.668-16.668c0-9.205,7.463-16.668,16.668-16.668
		h362.246c9.205,0,16.668,7.463,16.668,16.668C453.791,179.216,446.328,186.679,437.123,186.679z"/>
</g>
</svg>