<?xml version="1.0" encoding="iso-8859-1"?>
<!-- Uploaded to: SVG Repo, www.svgrepo.com, Generator: SVG Repo Mixer Tools -->
<svg version="1.1" id="Layer_1" xmlns="http://www.w3.org/2000/svg" xmlns:xlink="http://www.w3.org/1999/xlink" 
	 viewBox="0 0 512 512" xml:space="preserve">
<path style="fill:#EA348B;" d="M356.994,360.804c-7.512-9.527-10.981-23.462-9.767-39.24c1.501-19.531,5.671-61.946,5.713-62.373
	l0.063-0.849c0.465-9.528-4.028-18.327-12.018-23.538c-7.99-5.212-17.854-5.777-26.387-1.511l-1.19,0.595l-51.406,36.495h-10.507
	l-53.9-52.34l-1.661-1.01c-9.36-5.691-20.915-5.57-30.155,0.316c-9.239,5.886-14.231,16.307-13.039,27.093
	c0.245,2.353,6.052,57.896,9.083,81.703c2.118,16.654,2.088,24.586-6.893,36.151c-12.324,15.864-25.491,41.761-25.491,66.865
	c0,46.453,55.593,82.84,126.562,82.84s126.562-36.388,126.562-82.84C382.562,407.332,372.527,380.5,356.994,360.804z"/>
<path style="fill:#B02768;" d="M356.994,360.804c-7.512-9.527-10.981-23.462-9.767-39.24c1.501-19.531,5.671-61.946,5.713-62.373
	l0.063-0.849c0.465-9.528-4.028-18.327-12.018-23.538c-7.99-5.212-17.854-5.777-26.387-1.511l-1.19,0.595l-51.406,36.495H256V512
	c70.969,0,126.562-36.388,126.562-82.84C382.562,407.332,372.527,380.5,356.994,360.804z"/>
<path style="fill:#00D7DF;" d="M273.258,0c-8.312,0-15.595,4.407-19.639,11.012c-2.139,3.493-26.384,58.022-26.384,58.022
	l11.506,23.011v264.629h34.517V92.045l11.506-17.258V42.919c6.871-3.981,11.506-11.395,11.506-19.908
	C296.27,10.302,285.968,0,273.258,0z"/>
<g>
	<rect x="227.236" y="396.944" style="fill:#CCF8F3;" width="57.528" height="34.517"/>
	<rect x="227.236" y="339.416" style="fill:#CCF8F3;" width="57.528" height="34.517"/>
</g>
</svg>