<?xml version="1.0" encoding="iso-8859-1"?>
<!-- Uploaded to: SVG Repo, www.svgrepo.com, Generator: SVG Repo Mixer Tools -->
<svg height="800px" width="800px" version="1.1" id="Layer_1" xmlns="http://www.w3.org/2000/svg" xmlns:xlink="http://www.w3.org/1999/xlink" 
	 viewBox="0 0 512 512" xml:space="preserve">
<g>
	<path style="fill:#FDBB00;" d="M393.747,130.975c0,3.762-0.708,7.578-2.177,11.255l-97.906,244.354l-36.028,89.906v1.025
		l-60.018-2.05L371.13,141.713c2.304-4.449,0.349-9.924-4.27-11.9c-1.384-0.592-2.853-0.793-4.27-0.634
		c-2.579,0.264-4.978,1.68-6.426,4.005l-18.516,29.729c-17.512,28.112-58.338,28.429-76.283,0.581l-48.995-76.019
		c-5.622-8.719-15.282-13.982-25.65-13.972c-1.078,0-2.135,0.053-3.181,0.169c-15.324,1.606-27.256,14.584-27.246,30.342
		l0.011,1.131l-9.343-83.745l8.402-1.67c35.986-3.984,71.073,12.999,90.286,43.679l47.357,75.639
		c5.918,9.459,19.509,9.966,26.125,0.972l19.869-27.024c8.92-12.122,25.396-15.874,38.681-8.793
		C387.839,109.616,393.747,120.068,393.747,130.975z"/>
	<path style="fill:#FDBB00;" d="M197.617,475.465l60.018,2.05h29.539l27.478,27.615H168.057l-2.811-27.615L119.21,24.508
		c-0.793-6.996,3.752-13.475,10.59-15.134c1.11-0.264,2.219-0.391,3.297-0.391c6.933,0,13.052,5.189,13.866,12.418l9.343,83.745
		v0.032L197.617,475.465z"/>
</g>
<path d="M380.981,96.153c-16.64-8.868-37.614-4.1-48.796,11.093l-19.868,27.023c-1.572,2.139-3.956,3.312-6.647,3.21
	c-2.645-0.099-4.968-1.444-6.375-3.692l-47.358-75.639c-18.104-28.909-49.253-46.824-83.326-47.921
	c-4.333-0.135-8.036,3.292-8.177,7.667c-0.142,4.375,3.291,8.036,7.667,8.177c28.785,0.927,55.104,16.063,70.4,40.489l47.356,75.636
	c4.172,6.669,11.357,10.827,19.218,11.122c7.883,0.298,15.346-3.314,20.015-9.659l19.867-27.021
	c6.545-8.895,18.827-11.689,28.57-6.495c7.318,3.899,11.864,11.476,11.864,19.775c0,2.841-0.542,5.638-1.607,8.307l-97.907,244.354
	c-1.629,4.064,0.346,8.678,4.41,10.305c0.966,0.388,1.964,0.571,2.945,0.571c3.144,0,6.119-1.883,7.36-4.98l97.909-244.362
	c1.82-4.556,2.743-9.332,2.743-14.195C401.243,115.75,393.478,102.812,380.981,96.153z"/>
<path d="M292.362,470.868c-1.487-1.495-3.509-2.336-5.618-2.336H268.51l20.183-50.364c1.629-4.064-0.346-8.678-4.409-10.306
	c-4.066-1.63-8.679,0.346-10.306,4.409l-24.129,60.214c-0.375,0.937-0.569,1.938-0.569,2.949v1.025c0,4.377,3.548,7.926,7.926,7.926
	h26.244l11.704,11.763H174.787l-2.086-20.49L126.655,22.559c-0.34-3.011,1.629-5.822,4.549-6.53
	c3.627-0.862,7.053,1.658,7.451,5.194l9.338,83.708c0.002,0.023,0.001,0.045,0.004,0.069l41.271,369.906
	c0.001,0.022,0.015,0.03,0.02,0.045c0.186,2.662,1.703,5.168,4.243,6.489c1.168,0.608,2.418,0.895,3.65,0.895
	c2.863,0,5.627-1.556,7.039-4.272L377.74,144.299c2.108-4.073,2.431-8.884,0.882-13.2c-1.548-4.315-4.855-7.826-9.076-9.632
	c-2.607-1.114-5.465-1.537-8.193-1.231c-5.126,0.525-9.625,3.332-12.346,7.7l-18.516,29.728
	c-6.781,10.886-18.486,17.442-31.312,17.542c-12.825,0.059-24.634-6.28-31.582-17.063l-48.995-76.021
	c-7.109-11.024-19.173-17.602-32.27-17.602c-0.014,0-0.027,0-0.041,0c-1.412,0-2.738,0.071-4.008,0.212
	c-8.397,0.88-15.901,4.407-21.741,9.703l-6.133-54.978C153.161,8.365,143.814,0,132.666,0c-1.714,0-3.441,0.204-5.167,0.615
	c-10.7,2.597-17.834,12.797-16.606,23.638l46.037,453.008l2.811,27.615c0.412,4.046,3.818,7.123,7.885,7.123h146.595
	c3.202,0,6.091-1.927,7.32-4.884c1.229-2.957,0.558-6.363-1.7-8.633L292.362,470.868z M343.948,166.046l18.516-29.729
	c0.143-0.228,0.353-0.295,0.579-0.318c0.083-0.011,0.176,0.004,0.27,0.044c0.071,0.031,0.285,0.122,0.388,0.409
	c0.102,0.287-0.003,0.492-0.032,0.548l-36.196,69.622l-2.526-22.355C332.574,179.973,339.133,173.776,343.948,166.046z
	 M299.301,191.058c3.518-0.027,6.976-0.402,10.337-1.09l4.73,41.86l-12.096,23.265l-7.254-64.19
	C296.435,191.005,297.861,191.069,299.301,191.058z M278.632,187.065l10.537,93.235l-12.105,23.283l-8.764-77.561
	c-0.491-4.35-4.427-7.475-8.765-6.986c-4.35,0.491-7.478,4.417-6.986,8.767L263.96,328.79l-12.096,23.266l-25.908-229.262
	l17.855,27.704l6.297,55.724c0.458,4.048,3.887,7.036,7.865,7.036c0.297,0,0.598-0.017,0.9-0.051
	c4.35-0.491,7.478-4.417,6.986-8.767l-3.116-27.568C267.403,181.227,272.784,184.66,278.632,187.065z M174.885,83.5l29.87,264.33
	c0.458,4.048,3.887,7.036,7.866,7.036c0.296,0,0.597-0.017,0.899-0.051c4.35-0.491,7.478-4.417,6.986-8.767L190.529,80.766
	c6.018,1.133,11.349,4.673,14.749,9.946l1.333,2.068l32.147,284.481l-12.096,23.265l-3.732-33.016
	c-0.491-4.35-4.426-7.473-8.765-6.986c-4.35,0.491-7.478,4.417-6.986,8.767l6.378,56.442l-11.383,21.897l-38.377-343.987
	l-0.006-0.691C163.785,94.695,168.189,87.44,174.885,83.5z"/>
</svg>