<?xml version="1.0" encoding="iso-8859-1"?>
<!-- Uploaded to: SVG Repo, www.svgrepo.com, Generator: SVG Repo Mixer Tools -->
<svg version="1.1" id="Layer_1" xmlns="http://www.w3.org/2000/svg" xmlns:xlink="http://www.w3.org/1999/xlink" 
	 viewBox="0 0 512.001 512.001" xml:space="preserve">
<g>
	<circle style="fill:#FFB966;" cx="143.643" cy="299.02" r="8.67"/>
	<circle style="fill:#FFB966;" cx="168.566" cy="274.651" r="8.67"/>
	<circle style="fill:#FFB966;" cx="192.217" cy="251.555" r="8.67"/>
</g>
<path style="fill:#FFDB6C;" d="M272.215,216.539L122.146,363.164l-16.54,16.161l-67.285,65.74l24.232,24.799l43.203-42.211
	l38.581,39.487c14.261,14.597,37.656,14.868,52.253,0.607l164.261-160.492c14.597-14.261,14.868-37.656,0.607-52.253l-36.989-37.857
	C310.207,202.548,286.812,202.276,272.215,216.539z M327.377,274.879c4.585,4.692,4.498,12.213-0.195,16.799L181.796,433.726
	c-4.692,4.585-12.213,4.498-16.799-0.195l-23.569-24.123c-4.585-4.692-4.498-12.213,0.195-16.799l4.753-4.645l140.632-137.403
	c4.692-4.585,12.213-4.498,16.799,0.195L327.377,274.879z"/>
<g>
	
		<rect x="49.376" y="437.498" transform="matrix(-0.7153 0.6989 -0.6989 -0.7153 446.7351 706.1919)" style="fill:#FFB966;" width="60.254" height="13.211"/>
	<path style="fill:#FFB966;" d="M157.036,425.382l-15.608-15.975c-4.585-4.692-4.498-12.214,0.195-16.799l4.755-4.645
		l140.631-137.403c4.249-4.152,10.811-4.459,15.419-0.998l-7.961-8.149c-4.585-4.692-12.105-4.78-16.799-0.195L137.035,378.623
		l-4.753,4.645c-4.693,4.585-4.78,12.106-0.195,16.799l23.571,24.123C156.089,424.633,156.555,425.021,157.036,425.382z"/>
	<path style="fill:#FFB966;" d="M361.457,255.003l-36.989-37.857c-0.775-0.793-1.58-1.535-2.406-2.243l30.053,30.76
		c14.261,14.597,13.991,37.992-0.607,52.253L187.248,458.406c-13.805,13.487-35.471,13.969-49.847,1.637l6.936,7.099
		c14.261,14.597,37.656,14.868,52.253,0.607l164.261-160.492C375.447,292.993,375.719,269.6,361.457,255.003z"/>
</g>
<path style="fill:#FC4C59;" d="M501.122,140.546l0.107-0.105c6.82-6.663,6.946-17.594,0.283-24.413L402.384,14.571
	c-6.663-6.82-17.594-6.946-24.413-0.283l-0.108,0.105c-6.82,6.663-6.946,17.594-0.283,24.413l99.128,101.456
	C483.371,147.082,494.301,147.209,501.122,140.546z"/>
<path style="fill:#E83A64;" d="M501.512,116.027l-11.267-11.532c5.411,6.843,4.891,16.807-1.489,23.04l-0.107,0.105
	c-6.82,6.663-17.534,6.9-24.197,0.08l12.257,12.542c6.663,6.82,17.594,6.946,24.413,0.283l0.109-0.105
	C508.049,133.777,508.177,122.847,501.512,116.027z"/>
<path style="fill:#FC4C59;" d="M62.656,494.783L62.656,494.783c6.849-6.692,6.978-17.67,0.284-24.521l-24.529-25.106
	c-6.692-6.849-17.67-6.978-24.521-0.284l0,0c-6.849,6.692-6.978,17.67-0.284,24.521l24.529,25.106
	C44.829,501.349,55.807,501.476,62.656,494.783z"/>
<path style="fill:#E83A64;" d="M62.941,470.263l-8.928-9.137c6.628,6.854,6.484,17.781-0.344,24.454l0,0
	c-6.85,6.693-17.828,6.565-24.521-0.284l-15.6-15.97c0.021,0.022,0.038,0.045,0.06,0.067l24.529,25.106
	c6.693,6.849,17.67,6.978,24.521,0.284l0,0C69.507,488.091,69.634,477.112,62.941,470.263z"/>
<path style="fill:#FFDB6C;" d="M363.716,51.866c-12.472,12.186-9.921,36.162-9.686,53.605c0.165,12.296-5.905,36.9-14.701,45.494
	l-67.113,65.573c14.049-13.727,36.244-13.983,50.606-0.97l40.739-39.804c8.796-8.594,31.409-15.794,45.823-13.641
	c17.246,2.576,41.344,3.747,53.816-8.439l13.62-13.307L377.337,38.559L363.716,51.866z"/>
<g>
	<path style="fill:#FFB966;" d="M468.914,132.287l-4.462-4.567l-0.156,0.134l-13.62,13.307
		c-12.472,12.186-36.57,11.015-53.816,8.439c-14.413-2.152-37.027,5.047-45.823,13.642l-40.738,39.804
		c-4.596-4.165-9.996-6.964-15.673-8.403l-22.41,21.896c14.049-13.727,36.244-13.984,50.606-0.97l40.738-39.804
		c8.796-8.594,31.409-15.794,45.823-13.641c17.246,2.576,41.344,3.747,53.816-8.439l13.62-13.307L468.914,132.287z"/>
	<path style="fill:#FFB966;" d="M301.688,187.742l-29.473,28.797c14.049-13.727,36.244-13.984,50.606-0.97l15.622-15.264
		l-0.62-0.635C328.068,189.687,314.498,185.7,301.688,187.742z"/>
</g>
<circle cx="143.643" cy="299.02" r="8.67"/>
<circle cx="168.566" cy="274.651" r="8.67"/>
<circle cx="192.217" cy="251.555" r="8.67"/>
<path d="M295.549,238.509c-5.501-0.029-10.672,2.014-14.599,5.85l-48.984,47.859c-0.002,0.002-0.005,0.003-0.007,0.006
	c-0.002,0.002-0.003,0.005-0.006,0.007l-21.349,20.859c-0.001,0.001-0.003,0.002-0.005,0.003l-27.211,26.587
	c-0.002,0.002-0.005,0.003-0.006,0.006c-0.001,0.002-0.003,0.003-0.006,0.006l-8.491,8.297l-39.323,38.42
	c-3.926,3.836-6.123,8.97-6.187,14.459c-0.065,5.49,2.014,10.673,5.85,14.599l23.569,24.125c4.021,4.113,9.358,6.178,14.701,6.178
	c5.181,0,10.369-1.943,14.359-5.841l72.69-71.022c0.001-0.001,0.002-0.001,0.002-0.002c0,0,0.001-0.002,0.002-0.002l72.69-71.022
	c8.105-7.919,8.256-20.953,0.339-29.059c-0.001,0-0.001,0-0.001,0l-23.569-24.123C306.172,240.771,301.037,238.573,295.549,238.509z
	 M254.631,350.441l-28.056-28.714l11.3-11.041l28.056,28.714L254.631,350.441z M229.757,374.745l-28.055-28.715l12.472-12.185
	l28.056,28.714L229.757,374.745z M175.737,427.525c-1.266,1.237-3.301,1.214-4.54-0.052l-23.569-24.125
	c-0.808-0.827-0.919-1.783-0.913-2.278c0.006-0.497,0.139-1.45,0.965-2.258l41.618-40.663l28.055,28.715L175.737,427.525z
	 M321.123,285.476l-42.789,41.806l-28.056-28.714l42.789-41.807c0.808-0.79,1.74-0.914,2.245-0.914c0.012,0,0.024,0,0.035,0
	c0.496,0.006,1.45,0.14,2.258,0.966l23.569,24.123C322.412,282.203,322.387,284.239,321.123,285.476z"/>
<path d="M504.594,106.776L411.573,11.57c-10.024-10.258-26.523-10.449-36.78-0.427c-4.97,4.855-7.751,11.355-7.831,18.303
	c-0.025,2.187,0.247,4.328,0.744,6.401l-10.049,9.818c-13.611,13.297-12.973,35.399-12.458,53.156
	c0.067,2.334,0.133,4.602,0.163,6.767c0.184,13.655-6.767,33.975-12.091,39.175l-67.114,65.573L37.432,433.813
	c-9.604-4.689-21.529-3.154-29.599,4.731c-4.97,4.855-7.751,11.355-7.831,18.303c-0.081,6.948,2.549,13.51,7.404,18.478
	l24.529,25.106c5.088,5.207,11.844,7.82,18.608,7.82c6.559,0,13.123-2.459,18.173-7.394l0,0c4.97-4.855,7.751-11.355,7.831-18.303
	c0.049-4.113-0.876-8.082-2.628-11.674l31.695-30.967l32.523,33.286c8.515,8.716,19.917,13.594,32.102,13.735
	c0.181,0.002,0.362,0.003,0.544,0.003c11.982,0,23.282-4.601,31.867-12.99l51.055-49.884l8.15,8.34
	c1.699,1.739,3.949,2.61,6.202,2.61c2.185,0,4.372-0.821,6.057-2.469c3.425-3.347,3.489-8.835,0.142-12.26l-8.149-8.34
	l12.472-12.185l8.15,8.34c1.699,1.739,3.949,2.61,6.202,2.61c2.185,0,4.372-0.821,6.057-2.469c3.425-3.347,3.489-8.835,0.142-12.26
	l-8.149-8.34l11.3-11.041l8.15,8.34c1.699,1.739,3.949,2.61,6.202,2.61c2.185,0,4.372-0.821,6.057-2.469
	c3.425-3.347,3.489-8.835,0.142-12.26l-8.149-8.339l52.226-51.029c17.993-17.58,18.328-46.52,0.749-64.513l-36.989-37.859
	c-0.652-0.667-1.325-1.303-2.007-1.921c-0.007-0.007-0.013-0.014-0.02-0.02c-0.02-0.017-0.04-0.032-0.06-0.05
	c-10.15-9.309-23.4-11.162-24.257-11.28c-0.155-0.022-0.307-0.057-0.462-0.076l41.524-40.572
	c6.431-6.284,10.599-17.116,12.964-25.097c2.818-9.513,4.445-19.5,4.347-26.715c-0.03-2.251-0.098-4.608-0.169-7.034
	c-0.415-14.375-0.933-32.265,7.245-40.253l7.419-7.248l87.364,89.417l-7.418,7.248c-7.553,7.381-23.626,9.478-46.475,6.067
	c-16.69-2.493-42.032,5.138-53.163,16.015l-10.046,9.817c-3.425,3.347-3.489,8.835-0.142,12.26
	c3.347,3.423,8.835,3.489,12.259,0.142l10.046-9.815c6.596-6.445,26.44-13.066,38.484-11.269
	c28.829,4.306,49.405,0.667,61.154-10.813l10.061-9.829c2.186,0.577,4.427,0.894,6.676,0.894c6.559,0,13.124-2.459,18.174-7.394
	c4.97-4.855,7.751-11.355,7.831-18.303C512.079,118.307,509.449,111.745,504.594,106.776z M56.598,488.455L56.598,488.455
	c-3.419,3.342-8.918,3.277-12.26-0.142l-24.529-25.106c-1.618-1.657-2.495-3.844-2.468-6.159c0.025-2.315,0.954-4.482,2.61-6.1
	c1.684-1.645,3.873-2.465,6.059-2.465c2.133,0,4.261,0.791,5.921,2.345c0.077,0.086,0.148,0.176,0.229,0.259l24.232,24.801
	c0.138,0.141,0.284,0.267,0.429,0.396c1.565,1.646,2.416,3.795,2.389,6.07C59.181,484.67,58.253,486.837,56.598,488.455z
	 M354.792,301.055l-58.425,57.084c-0.001,0.001-0.002,0.002-0.003,0.003s-0.002,0.002-0.003,0.003l-105.83,103.401
	c-5.403,5.279-12.53,8.171-20.093,8.05c-7.553-0.088-14.62-3.111-19.9-8.515l-38.581-39.487c-1.698-1.739-3.949-2.611-6.202-2.611
	c-2.185,0-4.371,0.821-6.057,2.469l-36.938,36.09l-12.112-12.398l227.622-222.399c0.002-0.002,0.005-0.003,0.006-0.006l0.001-0.001
	c0.682-0.666,2.683-2.276,2.963-2.483c0.465-0.344,7.357-5.654,16.731-5.54c12.362,0.151,19.775,7.951,20.299,8.487l36.989,37.859
	C366.154,272.216,365.945,290.157,354.792,301.055z M492.049,131.154c-3.419,3.34-8.918,3.276-12.258-0.14l-21.294-21.795
	l-71.729-73.415c-1.618-1.657-2.495-3.844-2.468-6.159c0.025-2.315,0.954-4.482,2.61-6.1c1.684-1.645,3.873-2.465,6.059-2.465
	c2.253,0,4.506,0.87,6.202,2.606l93.021,95.206c1.618,1.657,2.495,3.844,2.468,6.159
	C494.633,127.369,493.706,129.536,492.049,131.154z"/>
</svg>